<?xml version="1.0" standalone="no"?>
<!DOCTYPE svg PUBLIC "-//W3C//DTD SVG 20010904//EN"
 "http://www.w3.org/TR/2001/REC-SVG-20010904/DTD/svg10.dtd">
<svg version="1.0" xmlns="http://www.w3.org/2000/svg"
 width="814.000000pt" height="254.000000pt" viewBox="0 0 814.000000 254.000000"
 preserveAspectRatio="xMidYMid meet">

<g transform="translate(0.000000,254.000000) scale(0.100000,-0.100000)"
fill="#000000" stroke="none">
<path d="M1105 2158 c-2 -7 -11 -47 -19 -88 l-16 -76 -73 -18 -72 -19 -60 66
-60 65 -62 -36 c-44 -26 -61 -42 -57 -52 3 -8 15 -48 27 -88 l21 -74 -52 -48
-52 -48 -77 24 c-43 13 -83 22 -89 20 -7 -3 -26 -30 -44 -62 l-33 -57 67 -61
66 -61 -16 -55 c-25 -84 -25 -84 -113 -104 l-81 -18 0 -73 0 -73 78 -17 c42
-9 80 -20 85 -24 4 -4 16 -37 26 -74 l18 -68 -65 -58 -65 -58 34 -61 c19 -34
39 -62 45 -62 6 0 44 11 84 25 l74 25 54 -53 54 -54 -26 -84 c-14 -46 -23 -85
-18 -87 4 -1 32 -18 62 -37 l55 -35 60 66 61 67 71 -19 71 -18 19 -85 18 -86
73 -3 c52 -2 73 1 77 10 2 7 11 47 20 88 l16 76 72 18 72 19 55 -62 c31 -33
61 -61 68 -61 6 0 35 14 64 32 29 17 54 32 55 33 1 1 -10 38 -24 83 l-27 82
53 54 53 53 76 -23 c42 -13 82 -24 87 -24 6 0 26 28 44 61 l34 62 -67 61 -67
61 17 55 c27 91 22 88 137 110 l57 11 0 74 0 73 -71 16 c-39 9 -78 16 -85 16
-8 0 -16 12 -20 28 -3 15 -12 47 -20 72 l-15 45 67 61 67 62 -32 56 c-18 30
-37 58 -42 62 -5 3 -46 -7 -90 -21 -44 -15 -81 -25 -82 -23 -1 2 -24 26 -50
55 l-49 51 26 83 c14 46 24 84 23 84 -1 1 -26 16 -55 33 -29 18 -58 32 -64 32
-7 0 -37 -28 -68 -61 l-55 -62 -72 19 -73 18 -16 76 c-8 41 -17 81 -19 88 -3
8 -27 12 -75 12 -48 0 -72 -4 -75 -12z m167 -277 c191 -32 359 -158 442 -335
42 -87 56 -153 56 -254 0 -95 -19 -175 -65 -267 -67 -137 -192 -243 -339 -292
-118 -38 -259 -38 -371 1 -248 86 -404 301 -405 558 0 105 15 168 62 267 109
228 368 363 620 322z"/>
<path d="M1181 1682 c-21 -54 -22 -66 -11 -93 l13 -31 20 60 c16 47 18 68 11
94 l-10 33 -23 -63z"/>
<path d="M1066 1599 c-14 -33 -26 -70 -26 -82 0 -13 16 -47 35 -77 44 -69 45
-80 1 -32 -39 42 -55 39 -32 -7 9 -16 16 -50 16 -75 0 -90 -36 -129 -69 -75
l-19 30 -16 -48 c-39 -113 -27 -230 29 -283 l25 -23 0 41 c0 36 7 50 43 89 23
25 47 57 53 72 l12 26 16 -37 c9 -21 16 -50 17 -65 1 -25 2 -24 14 12 19 57
17 131 -4 193 -10 28 -14 52 -10 52 4 0 23 -16 42 -35 36 -37 58 -81 79 -155
11 -43 12 -43 16 -15 6 48 16 48 42 3 25 -45 33 -122 16 -168 -9 -25 -9 -25
12 -6 60 53 85 183 58 299 -18 76 -54 153 -85 181 -21 19 -21 19 -22 -15 -1
-33 -1 -34 -9 -7 -11 38 -39 70 -99 118 -48 38 -91 101 -91 135 0 32 -18 13
-44 -46z"/>
<path d="M980 1370 c-10 -29 -10 -44 -3 -51 17 -17 33 -1 33 34 0 54 -15 62
-30 17z"/>
<path d="M2683 1839 c-63 -18 -67 -38 -73 -289 -5 -243 -10 -265 -62 -304 -21
-14 -50 -21 -110 -26 -46 -3 -93 -11 -105 -18 -49 -27 -67 -106 -38 -162 23
-45 62 -60 153 -60 181 0 303 78 365 233 19 47 22 76 25 297 2 152 0 255 -7
272 -19 50 -86 76 -148 57z"/>
<path d="M3014 1840 c-83 -19 -84 -25 -84 -445 0 -353 3 -387 34 -407 6 -4
176 -8 379 -8 356 0 368 1 387 20 20 20 21 30 18 404 -3 362 -4 385 -22 405
-28 31 -91 46 -138 32 -70 -21 -72 -31 -78 -341 l-5 -275 -165 0 -165 0 -5
275 c-5 283 -9 309 -48 328 -28 15 -75 20 -108 12z"/>
<path d="M5234 1836 c-44 -20 -74 -62 -74 -105 1 -22 32 -112 80 -226 l78
-190 -50 -3 c-28 -2 -52 -1 -54 1 -2 1 1 20 7 41 22 79 -32 148 -117 150 -34
1 -49 -5 -68 -24 -32 -31 -176 -350 -176 -387 0 -46 34 -89 84 -108 43 -16 46
-16 83 1 24 12 46 34 61 62 l23 42 150 0 149 0 14 -32 c32 -77 106 -103 174
-62 39 23 66 76 57 112 -8 33 -250 622 -277 675 -12 25 -31 44 -53 53 -42 17
-51 17 -91 0z"/>
<path d="M7531 1837 c-19 -7 -44 -25 -55 -40 -20 -28 -21 -39 -21 -387 0 -348
1 -359 21 -387 11 -15 38 -34 60 -41 33 -11 45 -11 79 3 75 28 75 27 75 424 0
243 -4 358 -12 375 -22 50 -89 74 -147 53z"/>
<path d="M3867 1822 c-15 -17 -17 -58 -17 -391 0 -403 1 -412 55 -441 34 -18
86 -18 120 0 52 28 55 46 55 340 l0 270 30 0 30 0 0 -270 c0 -214 3 -277 14
-298 39 -75 166 -74 208 0 10 17 14 97 16 296 l3 272 28 0 27 0 77 -277 c42
-153 85 -289 95 -303 39 -52 130 -56 179 -8 44 44 40 69 -61 433 -87 312 -97
342 -125 367 l-31 28 -344 0 c-319 0 -344 -1 -359 -18z"/>
<path d="M5747 1822 c-15 -17 -17 -59 -17 -400 l0 -382 29 -32 c25 -29 34 -32
84 -32 49 -1 60 3 84 27 l28 27 5 283 5 282 170 0 170 0 5 -281 c6 -314 5
-314 77 -333 79 -22 140 14 152 91 4 24 7 197 6 384 0 322 -1 343 -19 363 -19
21 -25 21 -391 21 -348 0 -373 -1 -388 -18z"/>
<path d="M6682 1806 l-37 -34 0 -366 0 -366 28 -27 c27 -28 29 -28 173 -31
171 -4 259 11 343 59 193 110 269 352 176 557 -30 65 -110 150 -173 185 -82
45 -151 57 -319 57 l-153 0 -38 -34z m373 -225 c74 -34 105 -85 105 -172 0
-123 -77 -189 -222 -189 l-58 0 0 190 0 190 68 0 c44 0 81 -7 107 -19z"/>
<path d="M6580 853 c-75 -24 -90 -57 -90 -202 0 -193 19 -211 225 -211 70 0
135 5 146 10 17 10 19 22 19 115 0 102 -1 105 -26 122 -24 15 -29 15 -53 2
-23 -13 -26 -22 -29 -72 l-3 -57 -79 0 -80 0 0 90 0 90 116 0 c135 0 154 7
154 55 0 56 -24 65 -165 64 -66 0 -127 -3 -135 -6z"/>
<path d="M7080 840 c-26 -26 -26 -34 11 -121 54 -129 52 -119 23 -119 -22 0
-25 3 -20 23 9 36 -19 67 -60 67 -34 0 -36 -2 -74 -86 -47 -101 -51 -139 -16
-155 32 -15 73 -4 81 21 6 18 15 20 86 20 43 0 79 -4 79 -9 0 -17 31 -41 54
-41 32 0 59 23 58 51 0 33 -129 341 -149 357 -24 18 -50 15 -73 -8z"/>
<path d="M7403 846 c-56 -25 -83 -93 -64 -164 16 -59 40 -75 124 -81 55 -5 72
-10 72 -21 0 -12 -18 -16 -81 -20 -90 -6 -114 -19 -114 -60 0 -47 26 -60 124
-60 138 0 183 38 174 147 -7 80 -35 104 -127 111 -61 4 -71 7 -71 23 0 17 8
19 70 19 75 0 110 19 110 58 0 43 -24 57 -107 60 -52 1 -89 -3 -110 -12z"/>
</g>
</svg>
