<svg xmlns="http://www.w3.org/2000/svg" viewBox="0 0 160 160" class="icon icon-custom-size sidebar-brand-narrow" height="35" role="img">
  <title>coreui logo</title>
  <g>
    <g transform="translate(0.000000,256) scale(11.1,-16.1)" fill="#fff" style="
    /* fill: white; */
">
      <path d="M1105 2158 c-2 -7 -11 -47 -19 -88 l-16 -76 -73 -18 -72 -19 -60 66 -60 65 -62 -36 c-44 -26 -61 -42 -57 -52 3 -8 15 -48 27 -88 l21 -74 -52 -48 -52 -48 -77 24 c-43 13 -83 22 -89 20 -7 -3 -26 -30 -44 -62 l-33 -57 67 -61 66 -61 -16 -55 c-25 -84 -25 -84 -113 -104 l-81 -18 0 -73 0 -73 78 -17 c42 -9 80 -20 85 -24 4 -4 16 -37 26 -74 l18 -68 -65 -58 -65 -58 34 -61 c19 -34 39 -62 45 -62 6 0 44 11 84 25 l74 25 54 -53 54 -54 -26 -84 c-14 -46 -23 -85 -18 -87 4 -1 32 -18 62 -37 l55 -35 60 66 61 67 71 -19 71 -18 19 -85 18 -86 73 -3 c52 -2 73 1 77 10 2 7 11 47 20 88 l16 76 72 18 72 19 55 -62 c31 -33 61 -61 68 -61 6 0 35 14 64 32 29 17 54 32 55 33 1 1 -10 38 -24 83 l-27 82 53 54 53 53 76 -23 c42 -13 82 -24 87 -24 6 0 26 28 44 61 l34 62 -67 61 -67 61 17 55 c27 91 22 88 137 110 l57 11 0 74 0 73 -71 16 c-39 9 -78 16 -85 16 -8 0 -16 12 -20 28 -3 15 -12 47 -20 72 l-15 45 67 61 67 62 -32 56 c-18 30 -37 58 -42 62 -5 3 -46 -7 -90 -21 -44 -15 -81 -25 -82 -23 -1 2 -24 26 -50 55 l-49 51 26 83 c14 46 24 84 23 84 -1 1 -26 16 -55 33 -29 18 -58 32 -64 32 -7 0 -37 -28 -68 -61 l-55 -62 -72 19 -73 18 -16 76 c-8 41 -17 81 -19 88 -3 8 -27 12 -75 12 -48 0 -72 -4 -75 -12z m167 -277 c191 -32 359 -158 442 -335 42 -87 56 -153 56 -254 0 -95 -19 -175 -65 -267 -67 -137 -192 -243 -339 -292 -118 -38 -259 -38 -371 1 -248 86 -404 301 -405 558 0 105 15 168 62 267 109 228 368 363 620 322z"></path>
      <path d="M1181 1682 c-21 -54 -22 -66 -11 -93 l13 -31 20 60 c16 47 18 68 11 94 l-10 33 -23 -63z"></path>
      <path d="M1066 1599 c-14 -33 -26 -70 -26 -82 0 -13 16 -47 35 -77 44 -69 45 -80 1 -32 -39 42 -55 39 -32 -7 9 -16 16 -50 16 -75 0 -90 -36 -129 -69 -75 l-19 30 -16 -48 c-39 -113 -27 -230 29 -283 l25 -23 0 41 c0 36 7 50 43 89 23 25 47 57 53 72 l12 26 16 -37 c9 -21 16 -50 17 -65 1 -25 2 -24 14 12 19 57 17 131 -4 193 -10 28 -14 52 -10 52 4 0 23 -16 42 -35 36 -37 58 -81 79 -155 11 -43 12 -43 16 -15 6 48 16 48 42 3 25 -45 33 -122 16 -168 -9 -25 -9 -25 12 -6 60 53 85 183 58 299 -18 76 -54 153 -85 181 -21 19 -21 19 -22 -15 -1 -33 -1 -34 -9 -7 -11 38 -39 70 -99 118 -48 38 -91 101 -91 135 0 32 -18 13 -44 -46z"></path>
      <path d="M980 1370 c-10 -29 -10 -44 -3 -51 17 -17 33 -1 33 34 0 54 -15 62 -30 17z"></path>
    </g>
  </g>
</svg>